# xmcd
#
# Track frame offsets:
#	150
#	13363
#	35788
#	59313
#	76175
#	90538
#	102763
#	118213
#	135138
#	155588
#	171788
#	197550
#
# Disc length: 2903
#
# Revision: 3
# Processed by: cddbd v1.5.1PL0 Copyright (c) Steve Scherf et al.
# Submitted via: CDValet v3.31 - Copyright (c) 1997 Greg Leichner
# Normalized: r1:TDELIM( - ),TSWAP
#
DISCID=960b550c
DTITLE=Various Artist - With Love
DYEAR=1900
DGENRE=
TTITLE0=Tony Bennett - Steppin' Out With My Baby
TTITLE1=Nnenna Freelon - Comes Love
TTITLE2=Nancy Wil;son - Day Dream
TTITLE3=Luther Vandross - So Amazing
TTITLE4=Sara Vaughan - Obsession
TTITLE5=Stan Getz - The Look Of Love
TTITLE6=Billie Holliday - Tenderly
TTITLE7=Chet Baker - Let's Get Lost
TTITLE8=Etta James - The Very Thought Of You
TTITLE9=Johnny Mathis - Misty
TTITLE10=Regina Belle - Baby Come To Me
TTITLE11=Barry White - Can't Get Enough Of Your Love, Babe
EXTD=A26790\nSony Music Special Projects 1996
EXTT0=
EXTT1=
EXTT2=
EXTT3=
EXTT4=
EXTT5=
EXTT6=
EXTT7=
EXTT8=
EXTT9=
EXTT10=
EXTT11=
PLAYORDER=
